<svg width="21" height="21" viewBox="0 0 21 21" fill="none" xmlns="http://www.w3.org/2000/svg">
<path d="M14.1531 9.62505L9.86564 5.33755C9.69064 5.16255 9.60664 4.95838 9.61364 4.72505C9.62064 4.49172 9.71193 4.28755 9.88752 4.11255C10.0625 3.95213 10.2667 3.86813 10.5 3.86055C10.7333 3.85297 10.9375 3.93697 11.1125 4.11255L16.8875 9.88755C16.975 9.97505 17.0371 10.0698 17.0739 10.1719C17.1106 10.274 17.1284 10.3834 17.1273 10.5C17.1261 10.6167 17.1077 10.7261 17.0721 10.8282C17.0366 10.9303 16.9747 11.025 16.8866 11.1125L11.1116 16.8875C10.9512 17.048 10.7506 17.1282 10.5096 17.1282C10.2687 17.1282 10.0611 17.048 9.88664 16.8875C9.71164 16.7125 9.62414 16.5046 9.62414 16.2637C9.62414 16.0228 9.71164 15.8151 9.88664 15.6407L14.1531 11.375L4.37502 11.3751C4.1271 11.3751 3.91914 11.2911 3.75114 11.123C3.58314 10.9551 3.49943 10.7474 3.50002 10.5001C3.5006 10.2527 3.5846 10.0448 3.75202 9.87618C3.91943 9.70759 4.1271 9.62388 4.37502 9.62505L14.1531 9.62505Z" fill="#0B193C"/>
</svg>
