<svg width="48" height="48" viewBox="0 0 48 48" fill="none" xmlns="http://www.w3.org/2000/svg">
<path d="M19.5668 31.0631C19.5668 31.0631 17.2588 31.5558 16.2425 29.4146C16.1184 29.1547 16.0137 28.856 15.9322 28.5147C15.9322 28.5147 14.7336 28.7901 13.7174 27.863C13.1239 27.32 12.833 26.7226 12.8563 26.1059C12.6739 25.5551 12.6196 24.6397 13.3411 23.3557C13.3411 23.3557 14.7104 21.5365 16.7196 19.7716L17.9299 16.0479C18.085 15.5669 18.5039 15.2178 19.0082 15.1557L26.4596 14.1938C26.6846 14.1627 26.9018 14.0813 27.088 13.9455L33.6472 9.23652C34.6557 8.51505 34.5742 6.97512 33.4804 6.38553C30.6604 4.865 27.4293 4 24.0003 4C13.0735 4 4.0938 12.9021 4.00071 23.829C3.90762 35.008 12.9881 44.0924 24.171 43.9993C35.1057 43.9062 44.0116 34.9149 44 23.9764C43.9961 20.5513 43.1311 17.324 41.6067 14.508C41.0055 13.3986 39.4423 13.3094 38.6975 14.3257L33.8838 20.8577C33.6937 21.1176 33.5968 21.4396 33.6162 21.7615C33.6588 22.4364 33.6705 23.8678 33.3252 26.2494C33.011 28.4177 31.3548 30.5356 29.7605 32.126C28.1159 33.7629 26.5294 34.8373 26.5294 34.8373C26.5294 34.8373 24.7412 35.8963 23.5116 34.0111C23.3952 33.8327 23.2789 33.6232 23.1741 33.3827C23.1741 33.3827 21.1183 33.984 19.974 31.998C19.8189 31.7342 19.6831 31.4239 19.5706 31.0631M13.9074 14.8299L15.7848 17.933L12.6895 15.6096C12.3404 15.3497 12.383 14.8144 12.7709 14.6088L12.8912 14.5467C13.2519 14.3567 13.698 14.4808 13.9074 14.8299ZM11.2543 19.8182L14.9431 19.663L11.3357 21.0943C11.006 21.2262 10.6492 20.9935 10.6298 20.6405L10.622 20.5125C10.6026 20.1479 10.8896 19.8337 11.2543 19.8182Z" fill="#DC152A"/>
</svg>
