<svg width="16" height="16" viewBox="0 0 16 16" fill="none" xmlns="http://www.w3.org/2000/svg">
<path d="M2.66666 13.3334C2.29999 13.3334 1.98622 13.203 1.72533 12.9421C1.46444 12.6812 1.33377 12.3672 1.33333 12.0001V4.00008C1.33333 3.63341 1.46399 3.31964 1.72533 3.05875C1.98666 2.79786 2.30044 2.66719 2.66666 2.66675H13.3333C13.7 2.66675 14.014 2.79741 14.2753 3.05875C14.5367 3.32008 14.6671 3.63386 14.6667 4.00008V12.0001C14.6667 12.3667 14.5362 12.6807 14.2753 12.9421C14.0144 13.2034 13.7004 13.3339 13.3333 13.3334H2.66666ZM8 8.55008C8.05555 8.55008 8.11399 8.54164 8.17533 8.52475C8.23666 8.50786 8.29488 8.48297 8.34999 8.45008L13.0667 5.50008C13.1556 5.44453 13.2222 5.37519 13.2667 5.29208C13.3111 5.20897 13.3333 5.11719 13.3333 5.01675C13.3333 4.79453 13.2389 4.62786 13.05 4.51675C12.8611 4.40564 12.6667 4.41119 12.4667 4.53341L8 7.33342L3.53333 4.53341C3.33333 4.41119 3.13888 4.40853 2.95 4.52541C2.76111 4.6423 2.66666 4.80608 2.66666 5.01675C2.66666 5.12786 2.68888 5.22519 2.73333 5.30875C2.77777 5.3923 2.84444 5.45608 2.93333 5.50008L7.65 8.45008C7.70555 8.48342 7.764 8.50853 7.82533 8.52541C7.88666 8.5423 7.94488 8.55053 8 8.55008Z" fill="#8991A4"/>
</svg>
