<svg width="22" height="22" viewBox="0 0 22 22" fill="none" xmlns="http://www.w3.org/2000/svg">
<path d="M16.9661 9.18144L10.1379 2.3532C9.85916 2.0745 9.72538 1.74934 9.73653 1.37774C9.74768 1.00613 9.89307 0.680978 10.1727 0.402274C10.4514 0.146796 10.7766 0.0130186 11.1482 0.000941246C11.5198 -0.0111361 11.8449 0.122641 12.1236 0.402274L21.3208 9.59949C21.4602 9.73885 21.5591 9.88981 21.6177 10.0524C21.6762 10.215 21.7045 10.3892 21.7027 10.575C21.7008 10.7608 21.6716 10.9349 21.6149 11.0975C21.5582 11.2601 21.4597 11.4111 21.3195 11.5504L12.1222 20.7476C11.8668 21.0031 11.5472 21.1309 11.1635 21.1309C10.7798 21.1309 10.4491 21.0031 10.1713 20.7476C9.8926 20.4689 9.75325 20.1377 9.75325 19.7541C9.75325 19.3704 9.8926 19.0397 10.1713 18.7619L16.9661 11.9685L1.39353 11.9685C0.998702 11.9685 0.66751 11.8347 0.399955 11.5671C0.1324 11.2996 -0.000914508 10.9689 1.4336e-05 10.575C0.00094318 10.1811 0.134721 9.84986 0.401347 9.58138C0.667973 9.3129 0.998702 9.17958 1.39353 9.18144L16.9661 9.18144Z" fill="white"/>
</svg>
