<svg width="135" height="88" viewBox="0 0 135 88" fill="none" xmlns="http://www.w3.org/2000/svg">
<g clip-path="url(#clip0_788_577)">
<path d="M131.406 39.5933C128.905 42.4901 124.607 46.7995 120.269 47.9562C116.879 48.857 115.644 45.1105 114.582 42.9405C118.492 41.487 122.596 37.3106 123.107 36.1744C123.474 35.3555 125.148 31.517 121.422 29.613C115.879 26.7981 101.597 43.7082 101.597 43.7082C101.944 39.2657 107.896 31.7524 109.713 28.7839C121.974 12.1912 120.401 6.20301 117.676 5.7731C115.46 5.42507 112.816 11.2494 105.629 25.2115C104.149 28.0776 102.332 32.5713 100.178 34.9665C92.8889 43.0531 87.4885 48.0688 85.3957 47.5263C84.1911 47.2192 85.1507 44.5987 86.2635 42.3673C87.6621 39.5626 90.2653 36.6146 90.8472 35.0587C91.4291 33.5028 89.7957 31.65 88.8667 30.5138C87.8764 29.2957 85.3855 30.3398 83.9155 30.2272C83.8746 29.265 85.1201 27.965 84.2421 27.9548C84.2421 27.9548 81.8431 27.7808 78.1782 31.9776C76.7898 33.5642 76.5346 34.6595 76.7183 35.4067C76.7081 35.4169 76.6979 35.4272 76.6877 35.4476C74.2172 38.1807 66.0706 47.8641 62.9876 47.7208C60.9459 47.6286 64.2331 41.1799 65.1008 39.6035C66.3156 37.3823 68.5922 34.0146 69.0516 31.9878C69.3885 30.4729 67.9797 29.7871 67.1528 29.6233C66.3769 29.4697 65.1416 29.5721 64.4372 30.2886C63.8043 30.9437 62.324 32.3359 61.4461 33.5642C61.4461 33.5642 61.3134 28.0879 55.8823 29.4902C51.1149 30.7185 48.2564 33.0933 44.7957 35.7445C40.2018 39.2657 34.7809 46.0727 38.1498 51.1499C40.263 54.3435 44.9692 52.2963 46.7455 51.3546C50.2676 49.4814 55.2392 45.5609 58.0262 41.9066C56.3213 44.7113 54.8206 51.5491 59.241 52.7467C63.6818 53.9443 69.807 47.3523 72.3286 44.6909C74.3499 42.5515 78.1782 38.2012 79.6074 36.7579C80.9039 36.8295 83.2315 35.5705 84.4872 35.0689C83.3336 36.7067 81.3837 40.1665 80.6385 41.7019C78.8724 45.3767 77.3411 50.9349 81.3531 52.5932C84.7526 53.9955 90.5103 50.6688 99.3204 39.9822C96.1149 45.6735 95.0838 49.6042 97.1562 51.4467C99.7288 52.7262 103.383 46.8302 105.793 43.8106C107.304 41.9066 111.173 37.7508 113.398 36.1744C115.328 34.813 117.247 34.5878 117.349 35.9594C117.482 37.8019 112.173 40.75 111.612 41.1492C111.009 41.5893 108.559 42.8688 109.468 45.0184C110.264 46.8609 112.428 51.3751 115.644 52.5829C119.554 54.0364 126.21 47.5775 128.334 45.0798C130.447 42.6232 131.335 40.9649 131.886 39.9822C132.346 39.1838 132.223 38.6823 131.427 39.583L131.406 39.5933ZM43.2542 47.5672C41.7535 46.1035 43.734 42.2137 47.9808 39.3169C53.5548 35.5295 59.8127 35.939 59.8127 35.939C56.4132 41.9066 44.8876 49.1436 43.2542 47.557V47.5672Z" fill="white"/>
<path d="M17.0586 4.54538C17.0586 4.54538 17.0795 4.53483 17.09 4.52429C17.09 4.52429 17.0691 4.52429 17.0586 4.54538Z" fill="#221E1F"/>
<path d="M43.9384 29.5517C58.1999 26.1635 62.0486 15.9171 57.9856 8.35263C55.5355 3.77708 47.736 -0.696109 34.7301 0.0920732C27.094 0.552699 21.9692 2.26213 17.0997 4.52432C9.90253 7.83059 4.98193 13.3274 4.98193 18.7832C4.98193 20.9021 5.40049 22.9391 6.36011 24.3005C7.08493 25.3548 7.25848 25.2218 7.22785 25.0989C7.17681 24.9659 7.00326 24.669 6.89096 24.4541C6.54387 23.8092 4.81859 19.4486 8.11601 14.3203C9.87191 11.577 13.2612 9.41719 15.1396 8.36286C28.4518 1.69914 40.2122 3.8692 41.9579 4.24794C46.123 5.15896 52.9118 7.56445 51.5643 14.8628C49.2979 27.1871 27.7371 28.4871 23.3168 28.6202C26.0527 23.3178 28.3803 18.8447 28.5334 18.5273C28.9111 17.7699 30.7998 16.1526 30.7998 15.1187C30.7998 14.0849 28.6253 8.68018 26.8286 8.95656C25.0421 9.25341 24.746 12.5597 24.746 13.1227C24.746 13.1227 11.8014 38.4161 8.88166 43.7185C5.95176 49.0208 8.27935 50.4743 8.84083 51.1294C9.40231 51.7948 11.6686 54.016 13.4143 51.1089C14.2617 49.6861 13.5062 49.2153 14.4556 46.4617C14.9354 45.0491 18.5493 37.9043 21.9896 31.1792C26.2058 31.6808 33.8011 31.9776 43.9486 29.5619L43.9384 29.5517Z" fill="white"/>
<path d="M0 60.8127V87.9999H135V60.8127H0Z" fill="#00AEE6"/>
<path d="M15.0783 82.063C13.2612 82.063 11.6278 81.5717 11.1888 81.4693V78.9922C12.0157 79.504 13.3939 80.3638 15.16 80.3638C17.0384 80.3638 17.6407 79.3197 17.6407 78.4087C17.6407 75.3379 10.9336 75.1536 10.9336 71.1513C10.9336 68.6332 13.1183 67.5175 15.7725 67.5175C17.3345 67.5175 18.6922 67.8143 19.2129 67.9064V70.1174C18.2737 69.7489 17.0997 69.2167 15.6806 69.2167C14.4964 69.2167 13.5572 69.7489 13.5572 70.9568C13.5572 73.4442 20.2541 73.8127 20.2541 78.0607C20.2541 80.6914 18.1307 82.063 15.0783 82.063Z" fill="white"/>
<path d="M33.1682 75.3072V81.8378H30.7794V75.3072L26.165 67.7427H28.8601L31.984 72.8096L35.0977 67.7427H37.8132L33.1682 75.3072Z" fill="white"/>
<path d="M48.0016 82.063C46.1845 82.063 44.5409 81.5717 44.1121 81.4693V78.9922C44.939 79.504 46.307 80.3638 48.0833 80.3638C49.9617 80.3638 50.5334 79.3197 50.5334 78.4087C50.5334 75.3379 43.8467 75.1536 43.8467 71.1513C43.8467 68.6332 46.0109 67.5175 48.655 67.5175C50.2271 67.5175 51.5849 67.8143 52.0953 67.9064V70.1174C51.1663 69.7489 50.0025 69.2167 48.5733 69.2167C47.3891 69.2167 46.4601 69.7489 46.4601 70.9568C46.4601 73.4442 53.157 73.8127 53.157 78.0607C53.157 80.6914 51.0438 82.063 47.9812 82.063H48.0016Z" fill="white"/>
<path d="M68.8577 69.5647H65.3356V81.8378H62.9468V69.5647H59.4248V67.7427H68.8577V69.5647Z" fill="white"/>
<path d="M84.4463 81.8378H76.0752V67.7427H84.283V69.5647H78.4538V73.6284H83.9869V75.4505H78.4538V80.0158H84.4463V81.8378Z" fill="white"/>
<path d="M106.722 81.8378H104.537V70.7214H104.486L100.627 81.8378H98.4222L94.5429 70.7214H94.5021V81.8378H92.3276V67.7427H95.5842L99.5044 79.0024H99.535L103.476 67.7427H106.722V81.8378Z" fill="white"/>
<path d="M118.758 82.063C116.951 82.063 115.297 81.5717 114.868 81.4693V78.9922C115.695 79.504 117.074 80.3638 118.84 80.3638C120.708 80.3638 121.3 79.3197 121.3 78.4087C121.3 75.3379 114.613 75.1536 114.613 71.1513C114.613 68.6332 116.798 67.5175 119.442 67.5175C121.004 67.5175 122.372 67.8143 122.882 67.9064V70.1174C121.943 69.7489 120.769 69.2167 119.36 69.2167C118.186 69.2167 117.227 69.7489 117.227 70.9568C117.227 73.4442 123.944 73.8127 123.944 78.0607C123.944 80.6914 121.821 82.063 118.768 82.063H118.758Z" fill="white"/>
</g>
<defs>
<clipPath id="clip0_788_577">
<rect width="135" height="88" fill="white"/>
</clipPath>
</defs>
</svg>
