<svg width="174" height="29" viewBox="0 0 174 29" fill="none" xmlns="http://www.w3.org/2000/svg">
<g clip-path="url(#clip0_818_88)">
<path d="M19.2067 0.559082V5.36727H5.57757V13.3746H16.9279V18.1828H5.57757V28.5974H0V0.559082H19.2067Z" fill="#222222"/>
<path d="M39.6415 28.5974H45.219L32.9622 0.559082H29.6698L17.4067 28.5974H22.9843L25.6975 22.3876H36.9282L39.6415 28.5974ZM27.8002 17.5795L31.3129 9.54694L34.8256 17.5795H27.8002Z" fill="#222222"/>
<path d="M174 0.559082V5.36727H160.371V13.3746H171.721V18.1828H160.371V23.7892H174V28.5974H154.787V0.559082H174Z" fill="#222222"/>
<path d="M115.417 0.559479V28.5978H120.995V0.559479H115.417Z" fill="#222222"/>
<path d="M88.7436 0.559082V5.36727H80.7109V28.5974H75.1333V5.36727H67.1069V0.559082H88.7436Z" fill="#222222"/>
<path d="M92.5835 28.5974H98.1611V18.1828H109.511V13.3746H98.1611V5.36727H111.79V0.559082H92.5835V28.5974Z" fill="#222222"/>
<path d="M146.251 0.559082L137.922 19.6096L129.594 0.559082H124.01L136.273 28.5974H139.565L151.828 0.559082H146.251Z" fill="#222222"/>
<path d="M49.5686 21.0615C51.1802 22.834 53.6416 24.1601 56.2227 24.1601C58.6463 24.1601 60.3398 22.6705 60.3398 20.6153C60.3398 16.9887 55.0958 16.5487 51.3061 14.3301C49.0902 13.0416 47.3149 11.1057 47.3149 7.92542C47.3149 2.89095 51.9545 -0.00653076 56.6319 -0.00653076C59.4962 -0.00653076 62.1591 0.678558 64.822 2.65212L61.9954 6.68094C60.8686 5.63131 58.9674 4.8268 57.1166 4.8268C55.0581 4.8268 52.7603 5.71302 52.7603 7.8877C52.7603 12.4382 65.7914 11.0303 65.7914 20.5336C65.7914 25.5303 61.3155 28.9935 56.229 28.9935C52.4392 28.9935 48.9265 27.4222 46.0244 24.7635L49.5749 21.0552L49.5686 21.0615Z" fill="#222222"/>
</g>
<defs>
<clipPath id="clip0_818_88">
<rect width="174" height="29" fill="white"/>
</clipPath>
</defs>
</svg>
