<svg width="201" height="46" viewBox="0 0 201 46" fill="none" xmlns="http://www.w3.org/2000/svg">
<path d="M36.8809 8.51062C44.7145 8.51064 51.0654 14.8615 51.0654 22.6952C51.0654 30.5288 44.7145 36.8797 36.8809 36.8798C32.2401 36.8798 28.12 34.6505 25.5322 31.205C22.9444 34.6502 18.8251 36.8797 14.1846 36.8798C6.35093 36.8798 9.34197e-05 30.5288 0 22.6952C0 14.8615 6.35088 8.51062 14.1846 8.51062C18.8246 8.51068 22.9444 10.7388 25.5322 14.1835C28.1201 10.7386 32.2406 8.51062 36.8809 8.51062ZM36.8809 11.3475C32.7359 11.3475 29.1102 13.5702 27.1299 16.8885C27.9261 18.6608 28.3691 20.6264 28.3691 22.6952C28.3691 24.7631 27.9254 26.7272 27.1299 28.4989C29.1099 31.8183 32.7351 34.0428 36.8809 34.0428C43.1477 34.0428 48.2285 28.9621 48.2285 22.6952C48.2285 16.4283 43.1478 11.3476 36.8809 11.3475Z" fill="#FF6E2E"/>
<path d="M80.5577 15.3539H70.799V21.183H78.547V23.7728H70.799V32.3851H68.0851V12.766H80.5577V15.3539ZM87.0646 32.3851H84.3517V12.766H87.0646V32.3851ZM99.6056 27.89L106.675 12.766H109.61L100.431 32.3851H98.7814L89.6017 12.766H92.5392L99.6056 27.89ZM124.019 15.3539H114.262V21.183H122.011V23.7728H114.262V29.7953H124.306V32.3851H111.548V12.766H124.019V15.3539ZM140.696 12.766C142.816 12.766 144.754 13.4385 146.295 14.7133L147.213 15.4701L145.277 17.265L144.556 16.6439C143.529 15.7614 142.195 15.2943 140.696 15.2943C138.917 15.2943 137.115 16.1561 137.115 17.8021C137.115 19.2123 138.675 19.922 141.245 20.9213C143.979 21.9859 147.381 23.3097 147.381 26.9027C147.381 30.0243 144.579 32.3783 140.864 32.3783V32.3832C137.96 32.3831 135.39 31.2085 133.627 29.0795L132.817 28.101L135.182 26.8285L135.733 27.5306C136.874 28.9851 138.794 29.8519 140.864 29.8519C143.087 29.8519 144.7 28.6143 144.7 26.9076C144.7 25.2009 142.994 24.346 140.183 23.2533C137.488 22.205 134.435 21.019 134.435 17.8041C134.435 14.8858 137.068 12.766 140.696 12.766ZM200.109 15.5951H193.988V32.1039H191.351V15.5951H185.231V13.0804H200.109V15.5951ZM157.96 13.0511C159.872 13.0511 161.339 13.5043 162.448 14.4359C163.536 15.3535 164.267 16.983 164.267 18.4886C164.267 19.8568 163.63 21.8465 162.448 22.8412C161.339 23.7728 159.872 24.226 157.96 24.226H152.568V32.101H149.927V13.0511H157.96ZM175.446 13.0824C180.798 13.0824 184.834 17.1708 184.834 22.5922C184.834 28.0134 180.798 32.101 175.446 32.101C170.093 32.101 166.059 28.0134 166.059 22.5922C166.059 17.1708 170.095 13.0824 175.446 13.0824ZM175.446 15.5551C171.538 15.5551 168.592 18.581 168.592 22.5922C168.592 26.6032 171.538 29.6293 175.446 29.6293C179.355 29.6293 182.304 26.6032 182.304 22.5922C182.304 18.581 179.357 15.5551 175.446 15.5551ZM152.569 21.7064H157.904C159.522 21.7064 160.237 21.2976 160.678 20.9427C161.156 20.5388 161.628 19.3408 161.628 18.4886C161.628 17.716 161.213 16.782 160.662 16.3197C160.237 15.9788 159.522 15.5707 157.906 15.5707H152.569V21.7064Z" fill="#1F1F1F"/>
</svg>
